<svg width="37" height="37" viewBox="0 0 37 37" fill="none" xmlns="http://www.w3.org/2000/svg">
<path d="M14.7229 23.3562L27.7885 10.2906C28.0968 9.98229 28.4566 9.82812 28.8677 9.82812C29.2788 9.82812 29.6385 9.98229 29.9468 10.2906C30.2552 10.599 30.4093 10.9654 30.4093 11.3898C30.4093 11.8143 30.2552 12.1802 29.9468 12.4875L15.802 26.6708C15.4937 26.9792 15.134 27.1333 14.7229 27.1333C14.3118 27.1333 13.952 26.9792 13.6437 26.6708L7.01454 20.0417C6.7062 19.7333 6.5582 19.3674 6.57054 18.944C6.58287 18.5206 6.74372 18.1542 7.05308 17.8448C7.36244 17.5354 7.72884 17.3813 8.15229 17.3823C8.57573 17.3833 8.94162 17.5375 9.24995 17.8448L14.7229 23.3562Z" fill="white"/>
</svg>
