<svg width="28" height="28" viewBox="0 0 28 28" fill="none" xmlns="http://www.w3.org/2000/svg">
<path d="M27.6957 11.2451H26.5693V11.1871H13.9839V16.7806H21.8868C20.7339 20.0368 17.6357 22.3742 13.9839 22.3742C9.35031 22.3742 5.59355 18.6174 5.59355 13.9839C5.59355 9.35031 9.35031 5.59355 13.9839 5.59355C16.1227 5.59355 18.0686 6.40041 19.5501 7.71839L23.5055 3.76306C21.008 1.43544 17.6672 0 13.9839 0C6.26127 0 0 6.26127 0 13.9839C0 21.7065 6.26127 27.9677 13.9839 27.9677C21.7065 27.9677 27.9677 21.7065 27.9677 13.9839C27.9677 13.0462 27.8712 12.131 27.6957 11.2451Z" fill="#FFC107"/>
<path d="M1.61234 7.47507L6.20674 10.8445C7.4499 7.76664 10.4606 5.59355 13.9839 5.59355C16.1227 5.59355 18.0686 6.40041 19.5501 7.71839L23.5055 3.76306C21.008 1.43544 17.6672 0 13.9839 0C8.61266 0 3.95464 3.0324 1.61234 7.47507Z" fill="#FF3D00"/>
<path d="M13.9839 27.9677C17.5959 27.9677 20.8779 26.5854 23.3593 24.3375L19.0313 20.6751C17.5804 21.7792 15.8071 22.3761 13.9839 22.3742C10.3467 22.3742 7.25832 20.055 6.09487 16.8184L1.53473 20.3318C3.84906 24.8605 8.54904 27.9677 13.9839 27.9677Z" fill="#4CAF50"/>
<path d="M27.6957 11.2451H26.5693V11.1871H13.9839V16.7806H21.8868C21.3353 18.3303 20.3419 19.6845 19.0292 20.6758L19.0313 20.6751L23.3593 24.3375C23.0531 24.6158 27.9677 20.9758 27.9677 13.9839C27.9677 13.0462 27.8712 12.131 27.6957 11.2451Z" fill="#1976D2"/>
</svg>
