<svg width="34" height="34" viewBox="0 0 34 34" fill="none" xmlns="http://www.w3.org/2000/svg">
<path d="M12.998 15.3354C11.8883 14.2257 11.3334 12.8917 11.3334 11.3333C11.3334 9.77499 11.8883 8.44096 12.998 7.33124C14.1077 6.22152 15.4417 5.66666 17.0001 5.66666C18.5584 5.66666 19.8924 6.22152 21.0022 7.33124C22.1119 8.44096 22.6667 9.77499 22.6667 11.3333C22.6667 12.8917 22.1119 14.2257 21.0022 15.3354C19.8924 16.4451 18.5584 17 17.0001 17C15.4417 17 14.1077 16.4451 12.998 15.3354ZM5.66675 28.3333V24.3667C5.66675 23.5639 5.87358 22.8263 6.28725 22.1538C6.70092 21.4814 7.24964 20.9676 7.93341 20.6125C9.3973 19.8805 10.8848 19.3318 12.3959 18.9663C13.907 18.6008 15.4417 18.4176 17.0001 18.4167C18.5584 18.4157 20.0931 18.5989 21.6042 18.9663C23.1154 19.3337 24.6029 19.8824 26.0667 20.6125C26.7515 20.9667 27.3007 21.4804 27.7143 22.1538C28.128 22.8272 28.3344 23.5648 28.3334 24.3667V28.3333H5.66675ZM8.50008 25.5H25.5001V24.3667C25.5001 24.1069 25.4354 23.8708 25.306 23.6583C25.1766 23.4458 25.0052 23.2805 24.7917 23.1625C23.5167 22.525 22.2299 22.0471 20.9313 21.7288C19.6327 21.4105 18.3223 21.2509 17.0001 21.25C15.6779 21.249 14.3674 21.4087 13.0688 21.7288C11.7702 22.049 10.4834 22.5269 9.20842 23.1625C8.99591 23.2805 8.8245 23.4458 8.69416 23.6583C8.56383 23.8708 8.49914 24.1069 8.50008 24.3667V25.5ZM19.0018 13.3351C19.5562 12.7797 19.8334 12.1125 19.8334 11.3333C19.8334 10.5542 19.5562 9.88738 19.0018 9.33299C18.4474 8.7786 17.7802 8.50093 17.0001 8.49999C16.22 8.49905 15.5532 8.77671 14.9997 9.33299C14.4463 9.88927 14.1686 10.556 14.1667 11.3333C14.1649 12.1106 14.4425 12.7779 14.9997 13.3351C15.557 13.8923 16.2237 14.1695 17.0001 14.1667C17.7764 14.1638 18.4437 13.8866 19.0018 13.3351Z" fill="white"/>
</svg>
